<svg xmlns="http://www.w3.org/2000/svg" height="644.215pt" version="1.1" viewBox="0 0 644.215 644.215" width="644.215pt">
<g id="surface1">
<path d="M 439.089844 58.546875 C 406.160156 58.546875 381.460938 66.777344 363.449219 77.070312 C 337.722656 91.589844 306.277344 91.589844 280.550781 77.070312 C 262.539062 66.777344 237.839844 58.546875 204.910156 58.546875 C 58.546875 58.546875 0 175.636719 0 263.453125 C 0 409.816406 117.089844 439.089844 117.089844 526.90625 C 117.089844 614.726562 175.636719 644 234.183594 644 C 252.6875 643.910156 270.691406 637.960938 285.605469 627.003906 C 307.457031 611.710938 336.539062 611.710938 358.394531 627.003906 C 373.308594 637.960938 391.3125 643.910156 409.816406 644 C 468.363281 644 526.910156 614.726562 526.910156 526.90625 C 526.910156 439.089844 644 409.816406 644 263.453125 C 644 175.636719 585.453125 58.546875 439.089844 58.546875 Z M 439.089844 58.546875 " style=" stroke:none;fill-rule:nonzero;fill:rgb(29.803922%,77.647059%,43.137255%);fill-opacity:1;" />
<path d="M 380.546875 117.089844 C 380.546875 100.925781 354.332031 87.820312 322 87.820312 C 289.664062 87.820312 263.453125 100.925781 263.453125 117.089844 C 263.453125 133.257812 289.664062 146.363281 322 146.363281 C 354.332031 146.363281 380.546875 133.257812 380.546875 117.089844 Z M 380.546875 117.089844 " style=" stroke:none;fill-rule:nonzero;fill:rgb(7.843137%,63.137255%,25.882353%);fill-opacity:1;" />
<path d="M 380.546875 117.089844 C 380.546875 100.925781 360.886719 87.820312 336.636719 87.820312 C 312.386719 87.820312 292.726562 100.925781 292.726562 117.089844 C 292.726562 133.257812 312.386719 146.363281 336.636719 146.363281 C 360.886719 146.363281 380.546875 133.257812 380.546875 117.089844 Z M 380.546875 117.089844 " style=" stroke:none;fill-rule:nonzero;fill:rgb(0%,38.431373%,21.176471%);fill-opacity:1;" />
<path d="M 352.132812 0 C 339.101562 0 327.742188 8.867188 324.582031 21.511719 L 293.589844 81.804688 C 289.785156 97.019531 299.035156 112.441406 314.253906 116.242188 C 316.503906 116.804688 318.816406 117.089844 321.140625 117.089844 C 334.171875 117.089844 345.53125 108.222656 348.691406 95.582031 L 379.683594 35.285156 C 383.488281 20.070312 374.234375 4.652344 359.019531 0.847656 C 356.769531 0.285156 354.453125 0 352.132812 0 Z M 352.132812 0 " style=" stroke:none;fill-rule:nonzero;fill:rgb(8.627451%,22.352941%,41.176471%);fill-opacity:1;" />
<path d="M 337.6875 4.359375 C 331.207031 8.097656 326.488281 14.273438 324.582031 21.511719 L 293.589844 81.804688 C 290.617188 93.785156 295.769531 106.308594 306.3125 112.730469 C 312.796875 108.992188 317.515625 102.816406 319.417969 95.582031 L 350.410156 35.289062 C 353.382812 23.304688 348.230469 10.78125 337.6875 4.359375 Z M 337.6875 4.359375 " style=" stroke:none;fill-rule:nonzero;fill:rgb(26.27451%,36.862745%,53.333333%);fill-opacity:1;" />
<path d="M 222.59375 128.675781 C 198.535156 104.617188 144.902344 119.246094 102.800781 161.347656 C 60.695312 203.449219 46.070312 257.085938 70.128906 281.144531 C 94.1875 305.203125 147.820312 290.574219 189.921875 248.472656 C 232.027344 206.367188 246.652344 152.734375 222.59375 128.675781 Z M 222.59375 128.675781 " style=" stroke:none;fill-rule:nonzero;fill:rgb(51.764706%,84.705882%,61.176471%);fill-opacity:1;" />
<path d="M 526.910156 526.910156 C 526.910156 440.023438 641.339844 410.261719 643.777344 267.898438 C 642.191406 291.632812 626.414062 409.816406 468.363281 409.816406 C 322 409.816406 322 526.910156 322 526.910156 C 322 577.652344 344.078125 628.253906 388.058594 640.878906 C 388.882812 641.097656 389.6875 641.335938 390.523438 641.535156 C 396.828125 643.148438 403.308594 643.976562 409.820312 644 C 468.363281 644 526.910156 614.726562 526.910156 526.910156 Z M 526.910156 526.910156 " style=" stroke:none;fill-rule:nonzero;fill:rgb(7.843137%,63.137255%,25.882353%);fill-opacity:1;" />
<path d="M 89.019531 360.078125 C 97.117188 387.679688 116.644531 430.519531 156.886719 462.46875 C 165.703125 469.464844 178.050781 470.105469 188.117188 465.070312 C 206.144531 456.058594 210.742188 431.9375 196.570312 417.605469 C 181.0625 401.921875 161.578125 373.492188 147.664062 339.933594 C 143.066406 328.839844 131.777344 322 119.773438 322 L 118.0625 322 C 98.15625 322 83.414062 340.976562 89.019531 360.078125 Z M 89.019531 360.078125 " style=" stroke:none;fill-rule:nonzero;fill:rgb(51.764706%,84.705882%,61.176471%);fill-opacity:1;" />
<path d="M 168.253906 124.46875 C 154.804688 111.019531 127.546875 116.472656 107.371094 136.648438 C 87.195312 156.820312 81.746094 184.078125 95.195312 197.53125 C 108.644531 210.980469 135.902344 205.527344 156.078125 185.355469 C 176.253906 165.179688 181.707031 137.921875 168.253906 124.46875 Z M 168.253906 124.46875 " style=" stroke:none;fill-rule:nonzero;fill:rgb(71.764706%,90.980392%,76.862745%);fill-opacity:1;" />
</g>
</svg>